<svg width="40" height="32" viewBox="0 0 40 32" fill="none" xmlns="http://www.w3.org/2000/svg">
  <!-- Background with slight opacity -->
  <rect width="40" height="32" fill="url(#paint0_linear)" opacity="0.1"/>

  <!-- Central Data Structure Representation -->
  <path d="M20 10C22.2091 10 24 8.20914 24 6C24 3.79086 22.2091 2 20 2C17.7909 2 16 3.79086 16 6C16 8.20914 17.7909 10 20 10Z" fill="url(#paint1_linear)"/>

  <!-- Connecting Lines Representing Algorithmic Connections -->
  <path d="M20 10V22" stroke="url(#paint2_linear)" stroke-width="1.5" stroke-linecap="round"/>
  
  <!-- Node Representations for Different Data Structures -->
  <circle cx="20" cy="22" r="3" fill="url(#paint3_linear)"/>
  <circle cx="12" cy="16" r="3" fill="url(#paint4_linear)"/>
  <circle cx="28" cy="16" r="3" fill="url(#paint5_linear)"/>
  <circle cx="8" cy="26" r="3" fill="url(#paint6_linear)"/>
  <circle cx="32" cy="26" r="3" fill="url(#paint7_linear)"/>

  <!-- Connecting Lines Between Nodes -->
  <line x1="20" y1="22" x2="12" y2="16" stroke="url(#paint8_linear)" stroke-width="1.5" stroke-linecap="round"/>
  <line x1="20" y1="22" x2="28" y2="16" stroke="url(#paint9_linear)" stroke-width="1.5" stroke-linecap="round"/>
  <line x1="12" y1="16" x2="8" y2="26" stroke="url(#paint8_linear)" stroke-width="1.5" stroke-linecap="round"/>
  <line x1="28" y1="16" x2="32" y2="26" stroke="url(#paint9_linear)" stroke-width="1.5" stroke-linecap="round"/>

  <!-- Gradient Definitions -->
  <defs>
    <linearGradient id="paint0_linear" x1="3.15333" y1="1" x2="26.6886" y2="35.0542" gradientUnits="userSpaceOnUse">
      <stop offset="0.259336" stop-color="#FFDB6E"/>
      <stop offset="1" stop-color="#FFBC5E"/>
    </linearGradient>
    <linearGradient id="paint1_linear" x1="16" y1="2" x2="24" y2="10" gradientUnits="userSpaceOnUse">
      <stop offset="0.259336" stop-color="#FFDB6E"/>
      <stop offset="1" stop-color="#FFBC5E"/>
    </linearGradient>
    <linearGradient id="paint2_linear" x1="20" y1="10" x2="20" y2="22" gradientUnits="userSpaceOnUse">
      <stop offset="0.259336" stop-color="#FFDB6E"/>
      <stop offset="1" stop-color="#FFBC5E"/>
    </linearGradient>
    <linearGradient id="paint3_linear" x1="17" y1="22" x2="23" y2="22" gradientUnits="userSpaceOnUse">
      <stop offset="0.259336" stop-color="#FFDB6E"/>
      <stop offset="1" stop-color="#FFBC5E"/>
    </linearGradient>
    <linearGradient id="paint4_linear" x1="9" y1="16" x2="15" y2="16" gradientUnits="userSpaceOnUse">
      <stop offset="0.259336" stop-color="#FFDB6E"/>
      <stop offset="1" stop-color="#FFBC5E"/>
    </linearGradient>
    <linearGradient id="paint5_linear" x1="25" y1="16" x2="31" y2="16" gradientUnits="userSpaceOnUse">
      <stop offset="0.259336" stop-color="#FFDB6E"/>
      <stop offset="1" stop-color="#FFBC5E"/>
    </linearGradient>
    <linearGradient id="paint6_linear" x1="5" y1="26" x2="11" y2="26" gradientUnits="userSpaceOnUse">
      <stop offset="0.259336" stop-color="#FFDB6E"/>
      <stop offset="1" stop-color="#FFBC5E"/>
    </linearGradient>
    <linearGradient id="paint7_linear" x1="29" y1="26" x2="35" y2="26" gradientUnits="userSpaceOnUse">
      <stop offset="0.259336" stop-color="#FFDB6E"/>
      <stop offset="1" stop-color="#FFBC5E"/>
    </linearGradient>
    <linearGradient id="paint8_linear" x1="8" y1="16" x2="20" y2="22" gradientUnits="userSpaceOnUse">
      <stop offset="0.259336" stop-color="#FFDB6E"/>
      <stop offset="1" stop-color="#FFBC5E"/>
    </linearGradient>
    <linearGradient id="paint9_linear" x1="28" y1="16" x2="20" y2="22" gradientUnits="userSpaceOnUse">
      <stop offset="0.259336" stop-color="#FFDB6E"/>
      <stop offset="1" stop-color="#FFBC5E"/>
    </linearGradient>
  </defs>
</svg>